Please Seed Full 1080p HD


Complete name                            : D:VideosHBOGame Of Thrones Season 3 (1920x1080) [Phr0stY]S03E04 Game Of Thrones (1920x1080) [Phr0stY].mkv
Format                                   : Matroska
Format version                           : Version 4 / Version 2
File size                                : 2.05 GiB
Duration                                 : 53mn 23s
Overall bit rate                         : 5 500 Kbps
Encoded date                             : UTC 2013-04-22 19:15:16
Writing application                      : mkvmerge v6.0.0 ('Coming Up For Air') built on Jan 20 2013 09:52:00
Writing library                          : libebml v1.3.0 + libmatroska v1.4.0

Video
ID                                       : 1
Format                                   : AVC
Format/Info                              : Advanced Video Codec
Format profile                           : High@L4.0
Format settings, CABAC                   : Yes
Format settings, ReFrames                : 4 frames
Codec ID                                 : V_MPEG4/ISO/AVC
Duration                                 : 5mn 23s
Bit rate                                 : 5 007 Kbps
Width                                    : 1920 pixels
Height                                   : 1080 pixels
Display aspect ratio                     : 16:9
Frame rate mode                          : Constant
Frame rate                               : 23.976 fps
Color space                              : YUV
Chroma subsampling                       : 4:2:0
Bit depth                                : 8 bits
Scan type                                : Progressive
Bits/(Pixel*Frame)                       : 0.101
Stream size                              : 1.87 GiB (91%)
Title                                    : H.264
Default                                  : Yes
Forced                                   : No
Color primaries                          : BT.709
Transfer characteristics                 : BT.709
Matrix coefficients                      : BT.709

Audio
ID                                       : 2
Format                                   : AC-3
Format/Info                              : Audio Coding 3
Mode extension                           : CM (complete main)
Format settings, Endianness              : Big
Codec ID                                 : A_AC3
Duration                                 : 53mn 23s
Bit rate mode                            : Constant
Bit rate                                 : 384 Kbps
Channel(s)                               : 6 channels
Channel positions                        : Front: L C R, Side: L R, LFE
Sampling rate                            : 48.0 KHz
Bit depth                                : 16 bits
Compression mode                         : Lossy
Stream size                              : 147 MiB (7%)
Language                                 : English
Default                                  : Yes
Forced                                   : No

